<svg id="_013-binoculars" data-name="013-binoculars" xmlns="http://www.w3.org/2000/svg" width="57.233" height="48.72" viewBox="0 0 57.233 48.72">
    <g id="Group_251" data-name="Group 251" transform="translate(0 0)">
        <path id="Path_448" data-name="Path 448" d="M292.926,42.221a13.523,13.523,0,0,1,5.417-1.149,12.553,12.553,0,0,1,3.084.375.574.574,0,0,0,.7-.633l-.141-1.126h0c-.117-1.876-2.263-3.389-4.831-3.389-2.638,0-5.159,1.583-5.159,3.541l.117,1.876A.582.582,0,0,0,292.926,42.221Z" transform="translate(-257.761 -36.3)" fill="#a5a4bf"/>
        <path id="Path_449" data-name="Path 449" d="M57.139,122.853l-.059-.34c0-.023-.012-.047-.012-.07L54.9,111.421c-.281-2.544-2.134-4.761-4.831-6.133l-1.032-8.009c0-3.4-3.846-6.179-8.454-6.179s-8.994,2.756-8.994,6.168a3.645,3.645,0,0,0,.035.5l.059.868a9.1,9.1,0,0,0-3.06-.516,8.956,8.956,0,0,0-3.084.528l.059-.879a3.521,3.521,0,0,0,.035-.5c0-3.4-4.4-6.168-8.994-6.168s-8.454,2.779-8.454,6.179l-1.032,8.009c-2.7,1.36-4.55,3.588-4.831,6.133L.152,122.443c0,.023-.012.047-.012.07l-.059.34h0A8.018,8.018,0,0,0,0,123.92c0,5.23,5.476,9.474,12.218,9.474s12.218-4.245,12.218-9.474h0v-4.339a9.967,9.967,0,0,0,4.186.879,10.093,10.093,0,0,0,4.174-.868v4.327h0c0,5.23,5.476,9.474,12.218,9.474s12.218-4.245,12.218-9.474A10.61,10.61,0,0,0,57.139,122.853Zm-44.921,7.129c-4.772,0-8.806-2.779-8.806-6.062s4.034-6.062,8.806-6.062,8.806,2.779,8.806,6.062S16.991,129.982,12.218,129.982Zm16.4-12.523c-2.005,0-3.635-1.137-3.635-2.533s1.63-2.533,3.635-2.533,3.635,1.137,3.635,2.533S30.627,117.459,28.622,117.459ZM45,129.982c-4.772,0-8.806-2.779-8.806-6.062s4.034-6.062,8.806-6.062,8.806,2.779,8.806,6.062S49.776,129.982,45,129.982Z" transform="translate(0 -84.674)" fill="#a5a4bf"/>
        <path id="Path_450" data-name="Path 450" d="M110.084,41.536a12.623,12.623,0,0,1,3.084-.375,13.481,13.481,0,0,1,5.417,1.149.569.569,0,0,0,.8-.492l.117-1.876c0-1.958-2.521-3.541-5.159-3.541-2.568,0-4.7,1.513-4.831,3.389h0l-.141,1.126A.575.575,0,0,0,110.084,41.536Z" transform="translate(-96.541 -36.388)" fill="#a5a4bf"/>
    </g>
</svg>